<svg width="123" height="81" viewBox="0 0 123 81" fill="none" xmlns="http://www.w3.org/2000/svg">
<g clip-path="url(#clip0_7_86)">
<path d="M30.4809 4.62195L27.1368 14.0336C25.3815 19.0687 23.3956 24.9946 20.564 33.7737L26.9703 6.51978L21.7812 4.63486L6.59839 46.839L10.25 48.2592L13.5812 38.8604C15.3365 34.019 17.2071 28.3255 20.1412 19.2107L13.735 46.3226L18.86 48.2204L34.1837 6.04209L30.4809 4.62195Z" fill="white"/>
<path d="M39.7187 23.8068L32.6975 43.3532C31.8067 43.7632 30.8745 44.0749 29.9172 44.2827C29.9568 43.9424 30.0386 43.6085 30.1606 43.2886L41.5894 11.4515C42.64 8.59832 43.1525 8.59832 43.5625 8.59832C43.9725 8.59832 44.3825 8.71452 44.3825 9.66989C44.2215 11.1057 43.8547 12.5103 43.2934 13.84L42.8962 14.8857L46.74 16.2929L47.0475 15.3634C47.8175 13.475 48.2512 11.4647 48.3287 9.42459C48.3741 8.1418 47.9135 6.8931 47.0475 5.95169C46.6148 5.51826 46.0977 5.1798 45.5288 4.9576C44.9598 4.73541 44.3515 4.6343 43.7419 4.66065C43.0476 4.63729 42.3564 4.7647 41.7153 5.03424C41.0742 5.30378 40.4982 5.70914 40.0262 6.22281C38.7724 7.74387 37.8277 9.49855 37.2459 11.387L26.2656 41.9459C25.4456 44.2569 25.4072 46.0515 26.1759 47.1101C26.4421 47.4714 26.7937 47.7598 27.1987 47.9492C27.6038 48.1386 28.0494 48.223 28.495 48.1946C30.2759 48.1946 31.2625 47.0714 33.3766 44.6184L36.1825 45.6254L43.5625 25.214L39.7187 23.8068Z" fill="white"/>
<path d="M40.9487 46.7228L45.164 48.2592L48.3159 39.5834L44.1134 38.0599L40.9487 46.7228Z" fill="white"/>
<path d="M58.8607 41.4295C57.8101 44.2957 57.2976 44.2957 56.8876 44.2957C56.4776 44.2957 56.0676 44.1666 56.0676 43.2241C56.2274 41.7825 56.5987 40.3728 57.1694 39.0411L67.0863 11.4515C68.1497 8.59834 68.6622 8.59834 69.0722 8.59834C69.4822 8.59834 69.8794 8.71453 69.8794 9.6699C69.7185 11.1057 69.3516 12.5103 68.7904 13.84L68.406 14.8857L72.2497 16.2929L72.5572 15.3634C73.3262 13.4747 73.7599 11.4645 73.8385 9.42461C73.8783 8.14272 73.4184 6.89608 72.5572 5.9517C72.1232 5.52017 71.6058 5.18295 71.0373 4.96089C70.4687 4.73883 69.8609 4.63665 69.2516 4.66066C68.557 4.63473 67.8651 4.76097 67.2236 5.03067C66.5821 5.30037 66.0063 5.70711 65.536 6.22282C64.2728 7.73951 63.3232 9.49528 62.7429 11.387L54.2738 34.9872C52.3647 40.3322 52.1726 41.6103 52.1726 43.4694C52.1306 44.7478 52.591 45.9912 53.4538 46.9294C53.8856 47.3641 54.4026 47.7034 54.9717 47.9257C55.5408 48.148 56.1497 48.2483 56.7594 48.2204C57.4546 48.2413 58.1461 48.1115 58.7871 47.8397C59.4281 47.568 60.0038 47.1607 60.4751 46.6454C61.7374 45.1281 62.6869 43.3725 63.2682 41.4812L64.5494 37.763L60.7057 36.4719L58.8607 41.4295Z" fill="white"/>
<path d="M98.4385 11.4515C99.4891 8.59834 100.002 8.59834 100.412 8.59834C100.822 8.59834 101.232 8.71454 101.232 9.66991C101.071 11.1073 100.7 12.5127 100.13 13.84L99.7453 14.8857L103.589 16.293L103.909 15.3634C104.679 13.475 105.113 11.4647 105.191 9.42461C105.23 8.14272 104.771 6.89609 103.909 5.95171L103.679 5.73223L105.229 1.40724L101.398 0L99.7069 4.73813C98.707 4.87884 97.7754 5.33012 97.0419 6.02917C95.9168 7.16204 95.0815 8.55315 94.6075 10.083C93.1341 14.2015 92.66 20.463 92.25 26.5697C91.8272 32.4568 91.4172 38.0212 90.1872 41.4295C89.1238 44.2957 88.6113 44.2957 88.2013 44.2957C87.7913 44.2957 87.3941 44.1666 87.3941 43.2241C87.5305 41.7922 87.8714 40.3877 88.4063 39.054L88.8035 38.0083L84.9597 36.5881L84.6522 37.5306C83.8822 39.419 83.4485 41.4293 83.371 43.4694C83.356 44.6882 83.7793 45.8714 84.5625 46.8003L83.0378 51.022L86.8816 52.4292L88.4063 48.2075C89.5784 48.1628 90.6981 47.706 91.571 46.9165C92.7048 45.7883 93.5453 44.3959 94.0182 42.8626C95.4916 38.77 95.9528 32.4439 96.4013 26.3373H96.1707H96.4013C96.7985 20.4243 97.2085 14.8728 98.4385 11.4515Z" fill="white"/>
<path d="M119.169 4.63483L112.007 24.5427H109.444L116.094 6.04206L112.263 4.63483L97.042 46.8519L100.873 48.2591L108.035 28.4675H110.598L103.961 46.8519L107.792 48.2591L123 6.04206L119.169 4.63483Z" fill="white"/>
<path d="M83.7809 4.64777L65.3438 46.839L69.1875 48.2463L77.4772 28.4675H78.925L73.5181 46.8649L77.3619 48.2592L89.2391 6.66179L83.7809 4.64777ZM80.4369 24.5298H78.7969L84.87 9.61828L85.1263 9.72156L80.5137 24.5298H80.4369Z" fill="white"/>
<path d="M13.9016 73.796L28.1491 72.9439L115.056 63.8033L114.851 60.0206H0.205V63.8033H52.0828L102.333 62.7705L64.3444 65.3397L0 72.1047L0.0896875 75.9004L91.4044 81L91.6222 77.2302L28.1491 73.6798L13.9016 73.796Z" fill="white"/>
</g>
<defs>
<clipPath id="clip0_7_86">
<rect width="123" height="81" fill="white"/>
</clipPath>
</defs>
</svg>
